<?xml version="1.0" encoding="utf-8"?>
<!-- Generator: Adobe Illustrator 19.0.1, SVG Export Plug-In . SVG Version: 6.00 Build 0)  -->
<svg version="1.1" id="Layer_1" xmlns="http://www.w3.org/2000/svg" xmlns:xlink="http://www.w3.org/1999/xlink" x="0px" y="0px"
	 viewBox="0 0 100 100" style="enable-background:new 0 0 100 100;" xml:space="preserve">
<style type="text/css">
	.st0{fill:#65C8D0;}
	.st1{fill:#FFFFFF;}
</style>
<circle class="st0" cx="50" cy="50" r="50"/>
<g>
	<g>
		<path class="st1" d="M29.9,57.3c7.2-2.3,14.3-5.1,21.2-8.2c3.5-1.5,6.9-3.2,10.3-4.9c3.4-1.7,6.7-3.5,10-5.3l1.7-1l-1.4,1.5
			c-1.6,1.7-3.5,3.1-5.5,4.4c-1.9,1.3-3.9,2.5-5.8,3.8c-1.9,1.3-3.8,2.6-5.6,4.1l-5.4,4.4l-10.7,8.8c-1.8,1.5-3.6,2.9-5.3,4.4
			c-0.9,0.8-1.7,1.5-2.5,2.3c-0.8,0.8-1.5,1.7-2,2.6l-0.6-0.6L53.7,60c4.2-2.2,8.4-4.5,12.7-6.6c2.2-1,4.4-2,6.6-2.9
			c1.1-0.4,2.3-0.8,3.4-1.2c1.1-0.4,2.3-0.6,3.5-0.9l1.6-0.3l-1.2,1.1c-2.9,2.7-6,5.2-9.2,7.6c-3.2,2.4-6.5,4.6-9.9,6.6
			c-1.7,1-3.4,2-5.1,3c-1.7,1-3.3,2.1-4.7,3.4c-0.7,0.7-1.4,1.4-2,2.1l-1.9,2.2l-3.9,4.5l-0.3-0.5c3.3-1.3,6.7-2.5,9.9-4.1
			c1.6-0.8,3.2-1.6,4.7-2.5c1.5-0.9,2.9-2,4.4-3c1.4-1,2.9-2.1,4.5-2.9c1.6-0.8,3.3-1.5,5.1-1.6c0.9,0,1.9-0.1,2.6,0.6
			c0.4,0.3,0.4,0.9,0.3,1.3c-0.1,0.4-0.3,0.9-0.5,1.2c-0.9,1.5-2.1,2.9-3.3,4.2c1.2-1.4,2.4-2.7,3.2-4.2c0.2-0.4,0.4-0.8,0.5-1.2
			c0.1-0.4,0.1-0.9-0.3-1.2c-0.7-0.6-1.6-0.6-2.5-0.5c-1.8,0.2-3.4,0.9-5,1.7c-1.6,0.8-3,1.9-4.4,2.9C61,70,59.5,71.1,58,72
			c-1.5,1-3.1,1.8-4.7,2.6c-3.2,1.6-6.6,2.9-9.9,4.2l-1.1,0.4l0.8-0.9l3.8-4.5l1.9-2.3c0.6-0.8,1.3-1.5,2-2.2
			c1.4-1.4,3.1-2.5,4.8-3.6c1.7-1,3.4-2,5.1-3.1c6.7-4.2,13.1-8.8,18.9-14.2l0.4,0.8c-1.1,0.2-2.3,0.5-3.4,0.9
			c-1.1,0.3-2.2,0.8-3.4,1.2c-2.2,0.9-4.4,1.8-6.5,2.9c-4.3,2.1-8.5,4.3-12.7,6.6L28.9,74.3L27.7,75l0.6-1.2
			c0.5-1.2,1.3-2.1,2.2-2.9c0.8-0.8,1.7-1.6,2.6-2.4c1.8-1.5,3.6-2.9,5.4-4.4l10.7-8.8c1.8-1.5,3.6-2.9,5.4-4.4
			c1.8-1.4,3.7-2.8,5.7-4c1.9-1.3,3.9-2.5,5.8-3.7c1.9-1.3,3.8-2.6,5.4-4.2l0.4,0.5c-6.7,3.7-13.5,7-20.5,10
			C44.3,52.4,37.1,55,29.9,57.3z"/>
	</g>
	<g>
		<path class="st1" d="M71.7,41.1c-7.3,2.5-14.4,5.5-21.4,8.8c-3.5,1.6-7,3.4-10.4,5.1c-3.4,1.8-6.8,3.6-10.2,5.6l-1.6,0.9l1.2-1.4
			c1.6-1.7,3.5-3.1,5.4-4.4c1.9-1.3,3.8-2.6,5.7-3.8c1.9-1.3,3.7-2.6,5.5-4.1c1.8-1.4,3.5-3,5.3-4.4l10.5-8.9c1.7-1.5,3.5-3,5.2-4.5
			c0.9-0.8,1.7-1.5,2.5-2.4c0.8-0.8,1.5-1.7,1.9-2.6l0.6,0.5l-12.7,7.1l-12.7,7.1c-4.2,2.3-8.5,4.7-12.8,6.9c-2.2,1.1-4.4,2.1-6.6,3
			c-1.1,0.4-2.3,0.9-3.4,1.3c-1.2,0.4-2.3,0.7-3.5,1l-1.5,0.3l1.1-1c2.9-2.7,5.9-5.3,9-7.7c3.1-2.4,6.4-4.6,9.7-6.7
			c1.7-1.1,3.4-2.1,5-3.1c1.7-1,3.3-2.1,4.7-3.5c1.4-1.4,2.6-2.9,3.9-4.4c1.3-1.5,2.5-3,3.7-4.6l0.3,0.4c-3.3,1.3-6.7,2.7-9.9,4.3
			c-1.6,0.8-3.2,1.6-4.7,2.6c-1.5,0.9-2.9,2-4.4,3.1c-1.4,1.1-2.9,2.1-4.5,3c-1.6,0.8-3.3,1.5-5.1,1.8c-0.9,0.1-1.8,0.2-2.7-0.2
			c-0.4-0.2-0.7-0.7-0.7-1.1c0-0.5,0.2-0.9,0.4-1.3c0.8-1.6,2.1-3,3.2-4.3c-1.1,1.4-2.3,2.8-3.1,4.4c-0.2,0.4-0.3,0.8-0.4,1.3
			c0,0.4,0.2,0.9,0.6,1c0.8,0.4,1.7,0.3,2.6,0.2c1.8-0.3,3.4-1,5-1.9c1.6-0.9,3-1.9,4.4-3c1.4-1.1,2.8-2.2,4.4-3.2
			c1.5-1,3.1-1.9,4.7-2.7c3.2-1.6,6.6-3,9.9-4.4l0.9-0.4l-0.6,0.8c-1.2,1.6-2.4,3.1-3.7,4.6c-1.3,1.5-2.5,3-3.9,4.4
			c-1.4,1.4-3.1,2.5-4.8,3.6c-1.7,1-3.4,2.1-5,3.1c-3.3,2.1-6.5,4.4-9.6,6.8c-3.1,2.4-6.1,4.9-8.9,7.6l-0.4-0.7
			c1.2-0.3,2.3-0.6,3.5-1c1.1-0.4,2.3-0.8,3.4-1.3c2.2-0.9,4.4-1.9,6.6-3c4.3-2.2,8.5-4.6,12.8-6.9l12.7-7.1l12.7-7l1.1-0.6
			l-0.5,1.1c-0.5,1.2-1.3,2.1-2.1,2.9c-0.8,0.9-1.7,1.6-2.5,2.4c-1.7,1.5-3.5,3-5.3,4.5L51.6,44c-1.8,1.5-3.5,3-5.3,4.4
			c-1.8,1.5-3.7,2.8-5.6,4.1c-1.9,1.3-3.8,2.5-5.7,3.8c-1.9,1.3-3.8,2.6-5.3,4.3l-0.4-0.4c3.4-1.9,6.8-3.8,10.2-5.5
			c3.4-1.8,6.9-3.4,10.5-5C57.1,46.4,64.3,43.6,71.7,41.1z"/>
	</g>
</g>
</svg>
